M48
;Layer_Color=9474304
;FILE_FORMAT=4:4
METRIC,LZ
;TYPE=PLATED
T01F00S00C0.2000
T02F00S00C0.2500
T03F00S00C0.8000
T05F00S00C0.9000
T06F00S00C1.0000
T07F00S00C2.3000
%
T01
X-00179Y-00094
X-0006Y-00099
X-00055Y-00103
X-0005Y-00099
X-00045Y-00104
X-0004Y-00099
X-0003Y-001
X-00025Y-00104
X-0002Y-00099
X00005Y-00094
X0005Y-00066372
X00055145Y-00062
X00060247Y-00065157
X00065121Y-00058977
X00091Y-00035
X00096Y-0003
X00102383Y-00004253
X00107383Y-00000527
X00112Y00004
X00117Y00008
X00122Y00012
X00127Y00016
X00132Y0002
X00137Y00024
X00142Y00028
X00061Y-00005
X0001Y0012
X00005Y00115
X00015Y00125
X0002Y0013
X-00098Y-0003
X-00119Y-00036
X-00129
X-00124Y-00031
X-00134
X-0014Y-00036
Y-00015
X-00134Y-0001
X-00129Y-00005
X-00124Y0
X-00119Y00005
X-00115Y00211
X-00179Y00221
T02
X-00255Y-00241
X-00267Y-00167
X-00252Y-00106
X-00193Y-00134
X-00351Y-00139
X-00091Y-00121
X-00089Y-0016
X-00008Y-00156
X00007Y-00163
X00018Y-0012
X00039Y-00089
X00075Y-00093
X00195Y-00102
X00183Y-00135
X00161Y-0016
X00234Y-00155
X00266Y-00102
X00305Y-00097
X00299Y-00162
X00347Y-00177
X00381Y-00151
X00392Y-001
X00316Y-00222
X00307Y-00029
X00304Y00028
X00302Y00083
X00335Y00092
X00355Y00071
X00388Y00082
X00412Y00111
X00409Y00048
Y0
Y-00043
X0038Y00022
X00355Y00126
X00354Y00168
X00333Y00188
X00326Y00152
X00298Y00166
X00299Y00126
X00309Y00217
X00347Y0022
X00322Y00245
X00319Y00276
X00371Y00272
X00356Y00297
X00401Y00302
X00412Y00247
X00411Y00183
X00267Y002
X00237Y00212
X00192Y00218
X00201Y00243
X00173Y00252
X00198Y0028
X0024Y00281
X00281Y00241
X0023Y00162
X00195Y00167
X00206Y00185
X00205Y00146
X00195Y00118
X00209Y00097
X00246
X00266Y0008
Y00051
X00267Y00026
Y00002
X0027Y-00024
X00267Y-0005
X00264Y-00075
X00158Y-00084
X00078Y-00074
X00054Y-00021
X00025Y-00031
X-00016Y-00028
X-00053Y-00036
X-00041Y0
X-00044Y00035
X-00027Y00062
X-00016Y00101
X00048Y00116
X0005Y00161
X00023Y00156
X00081Y00149
X00108Y00164
X00105Y00201
X0007Y0021
X00067Y00249
X00089Y00236
X00121Y00275
X00103Y00297
X-0008Y00294
X-00074Y00241
X-00086Y00175
X-00075Y00153
X-00085Y00091
X-00113Y00023
X-00089Y-00082
X-00015Y-00088
X00028Y00013
X00041Y00039
X00074Y00074
X00102Y00096
X00155Y00128
X00163Y00071
X00194Y00069
X00188Y00042
X00166Y00026
X0025Y00136
X-00013Y00209
X-00117Y00198
X-00115Y00179
Y00144
X-00117Y00104
X-00136Y00085
X-0017Y00076
X-00201Y00085
X-00225Y00086
X-0025Y00085
X-00275Y00077
X-00258Y00113
X-00266Y00139
X-00269Y00189
X-00268Y00217
X-00269Y0024
X-0027Y00267
Y00291
X-00348Y00301
X-0035Y00247
X-00349Y00177
Y00104
X-00346Y00029
X-00352Y-00056
X-00275Y-00055
X-00243Y0
X-0026Y00021
X-0022Y-00017
X-00185Y00007
X-00154Y00013
Y-00039
X-00163Y-00081
X-00161Y00124
X-00221Y00178
X-00229Y00208
X-00149Y00265
X-00134Y00323
X-00156Y00365
X-00141Y0041
X-00146Y00461
X-00178Y00468
X-00223Y00456
X-00216Y00494
X-00286Y00474
X-0035Y00468
X-00351Y00403
X-00277Y00402
X-00269Y00378
X-00282Y00335
X-00227Y00325
X-00216Y00366
X-00202Y00403
X-00115Y0047
X-00079Y00428
X-00072Y00417
X-0009Y00386
X-0008Y00348
X-0004Y00347
X-00037Y00441
X00006Y00485
X00064Y00434
X00052Y00385
X00056Y00353
X00065Y00314
X00109Y00312
X00165Y00318
X00164Y00355
X00132Y00354
X00147Y00392
X00105Y00403
X00121Y00484
X00178Y00492
X00175Y00441
X00214Y00444
X00261Y00439
X00283
X00261Y00411
X0023Y00404
X00242Y00377
X00202Y00378
X00228Y00339
X00214Y0031
X0027243Y00313336
X0025781Y0046482
X00232Y00489
X00322Y00481
X00311Y00457
X00362Y00477
X00358Y00432
X00405Y00435
X0041Y00403
X00406Y00485
X00286Y0041
X00306Y00343
X003Y00321
X00349Y00322
T03
X0Y00428
Y00448
X00025
Y00428
T05
X000106Y00221
Y002464
Y002718
Y002972
X00036
Y002718
Y002464
Y00221
X0013Y002146
X001554
Y001892
Y001638
X0013
Y001892
Y0024
X001554
T06
X-00208Y-00225
X-001826
X-001572
X-001318
Y-001996
X-001572
X-001826
X-00208
X-001064
X-00081Y-001996
X-000556
X-000302
X-000048
X000206
X00046
X000714
X000968
X001222
X001476
X00173
X001984
X002238
X002492
X002746
Y-00225
X002492
X002238
X001984
X00173
X001476
X001222
X000968
X000714
X00046
X000206
X-000048
X-000302
X-000556
X-00081
X-001064Y-00225
X0024Y-001128
Y-000874
Y-00062
Y-000366
Y-000112
Y000142
Y000396
Y00065
X00185Y-00039
X001596
X000634Y00128
X00038
X-00148Y00146
X-001734
X-001988
X-002242
X-0032Y001526
Y001272
Y00178
Y002034
Y002288
Y002542
Y002796
Y00305
X-002642Y00044
X-002388
X-002134
X-00188
X-002Y-00035
X-001746
T07
X-000517Y004751
X000767
M30
