G04*
G04 #@! TF.GenerationSoftware,Altium Limited,Altium Designer,23.9.2 (47)*
G04*
G04 Layer_Color=8421504*
%FSLAX44Y44*%
%MOMM*%
G71*
G04*
G04 #@! TF.SameCoordinates,81187EA9-0F26-4261-9418-41746F820DDC*
G04*
G04*
G04 #@! TF.FilePolarity,Positive*
G04*
G01*
G75*
G04:AMPARAMS|DCode=14|XSize=1mm|YSize=2mm|CornerRadius=0.05mm|HoleSize=0mm|Usage=FLASHONLY|Rotation=270.000|XOffset=0mm|YOffset=0mm|HoleType=Round|Shape=RoundedRectangle|*
%AMROUNDEDRECTD14*
21,1,1.0000,1.9000,0,0,270.0*
21,1,0.9000,2.0000,0,0,270.0*
1,1,0.1000,-0.9500,-0.4500*
1,1,0.1000,-0.9500,0.4500*
1,1,0.1000,0.9500,0.4500*
1,1,0.1000,0.9500,-0.4500*
%
%ADD14ROUNDEDRECTD14*%
G04:AMPARAMS|DCode=15|XSize=1mm|YSize=1mm|CornerRadius=0.05mm|HoleSize=0mm|Usage=FLASHONLY|Rotation=90.000|XOffset=0mm|YOffset=0mm|HoleType=Round|Shape=RoundedRectangle|*
%AMROUNDEDRECTD15*
21,1,1.0000,0.9000,0,0,90.0*
21,1,0.9000,1.0000,0,0,90.0*
1,1,0.1000,0.4500,0.4500*
1,1,0.1000,0.4500,-0.4500*
1,1,0.1000,-0.4500,-0.4500*
1,1,0.1000,-0.4500,0.4500*
%
%ADD15ROUNDEDRECTD15*%
%ADD16O,0.3000X1.4000*%
G04:AMPARAMS|DCode=17|XSize=0.95mm|YSize=1.1mm|CornerRadius=0.0475mm|HoleSize=0mm|Usage=FLASHONLY|Rotation=90.000|XOffset=0mm|YOffset=0mm|HoleType=Round|Shape=RoundedRectangle|*
%AMROUNDEDRECTD17*
21,1,0.9500,1.0050,0,0,90.0*
21,1,0.8550,1.1000,0,0,90.0*
1,1,0.0950,0.5025,0.4275*
1,1,0.0950,0.5025,-0.4275*
1,1,0.0950,-0.5025,-0.4275*
1,1,0.0950,-0.5025,0.4275*
%
%ADD17ROUNDEDRECTD17*%
G04:AMPARAMS|DCode=18|XSize=0.95mm|YSize=1.1mm|CornerRadius=0.0475mm|HoleSize=0mm|Usage=FLASHONLY|Rotation=180.000|XOffset=0mm|YOffset=0mm|HoleType=Round|Shape=RoundedRectangle|*
%AMROUNDEDRECTD18*
21,1,0.9500,1.0050,0,0,180.0*
21,1,0.8550,1.1000,0,0,180.0*
1,1,0.0950,-0.4275,0.5025*
1,1,0.0950,0.4275,0.5025*
1,1,0.0950,0.4275,-0.5025*
1,1,0.0950,-0.4275,-0.5025*
%
%ADD18ROUNDEDRECTD18*%
G04:AMPARAMS|DCode=19|XSize=2.3mm|YSize=3.5mm|CornerRadius=0.115mm|HoleSize=0mm|Usage=FLASHONLY|Rotation=90.000|XOffset=0mm|YOffset=0mm|HoleType=Round|Shape=RoundedRectangle|*
%AMROUNDEDRECTD19*
21,1,2.3000,3.2700,0,0,90.0*
21,1,2.0700,3.5000,0,0,90.0*
1,1,0.2300,1.6350,1.0350*
1,1,0.2300,1.6350,-1.0350*
1,1,0.2300,-1.6350,-1.0350*
1,1,0.2300,-1.6350,1.0350*
%
%ADD19ROUNDEDRECTD19*%
G04:AMPARAMS|DCode=20|XSize=1mm|YSize=1mm|CornerRadius=0.05mm|HoleSize=0mm|Usage=FLASHONLY|Rotation=0.000|XOffset=0mm|YOffset=0mm|HoleType=Round|Shape=RoundedRectangle|*
%AMROUNDEDRECTD20*
21,1,1.0000,0.9000,0,0,0.0*
21,1,0.9000,1.0000,0,0,0.0*
1,1,0.1000,0.4500,-0.4500*
1,1,0.1000,-0.4500,-0.4500*
1,1,0.1000,-0.4500,0.4500*
1,1,0.1000,0.4500,0.4500*
%
%ADD20ROUNDEDRECTD20*%
%ADD21O,1.4000X0.3000*%
G04:AMPARAMS|DCode=22|XSize=0.7mm|YSize=0.7mm|CornerRadius=0.035mm|HoleSize=0mm|Usage=FLASHONLY|Rotation=0.000|XOffset=0mm|YOffset=0mm|HoleType=Round|Shape=RoundedRectangle|*
%AMROUNDEDRECTD22*
21,1,0.7000,0.6300,0,0,0.0*
21,1,0.6300,0.7000,0,0,0.0*
1,1,0.0700,0.3150,-0.3150*
1,1,0.0700,-0.3150,-0.3150*
1,1,0.0700,-0.3150,0.3150*
1,1,0.0700,0.3150,0.3150*
%
%ADD22ROUNDEDRECTD22*%
G04:AMPARAMS|DCode=23|XSize=0.6mm|YSize=1mm|CornerRadius=0.06mm|HoleSize=0mm|Usage=FLASHONLY|Rotation=180.000|XOffset=0mm|YOffset=0mm|HoleType=Round|Shape=RoundedRectangle|*
%AMROUNDEDRECTD23*
21,1,0.6000,0.8800,0,0,180.0*
21,1,0.4800,1.0000,0,0,180.0*
1,1,0.1200,-0.2400,0.4400*
1,1,0.1200,0.2400,0.4400*
1,1,0.1200,0.2400,-0.4400*
1,1,0.1200,-0.2400,-0.4400*
%
%ADD23ROUNDEDRECTD23*%
G04:AMPARAMS|DCode=24|XSize=0.6mm|YSize=1mm|CornerRadius=0.15mm|HoleSize=0mm|Usage=FLASHONLY|Rotation=180.000|XOffset=0mm|YOffset=0mm|HoleType=Round|Shape=RoundedRectangle|*
%AMROUNDEDRECTD24*
21,1,0.6000,0.7000,0,0,180.0*
21,1,0.3000,1.0000,0,0,180.0*
1,1,0.3000,-0.1500,0.3500*
1,1,0.3000,0.1500,0.3500*
1,1,0.3000,0.1500,-0.3500*
1,1,0.3000,-0.1500,-0.3500*
%
%ADD24ROUNDEDRECTD24*%
G04:AMPARAMS|DCode=25|XSize=1.6mm|YSize=0.45mm|CornerRadius=0.1125mm|HoleSize=0mm|Usage=FLASHONLY|Rotation=270.000|XOffset=0mm|YOffset=0mm|HoleType=Round|Shape=RoundedRectangle|*
%AMROUNDEDRECTD25*
21,1,1.6000,0.2250,0,0,270.0*
21,1,1.3750,0.4500,0,0,270.0*
1,1,0.2250,-0.1125,-0.6875*
1,1,0.2250,-0.1125,0.6875*
1,1,0.2250,0.1125,0.6875*
1,1,0.2250,0.1125,-0.6875*
%
%ADD25ROUNDEDRECTD25*%
G04:AMPARAMS|DCode=26|XSize=1.78mm|YSize=2.54mm|CornerRadius=0.089mm|HoleSize=0mm|Usage=FLASHONLY|Rotation=90.000|XOffset=0mm|YOffset=0mm|HoleType=Round|Shape=RoundedRectangle|*
%AMROUNDEDRECTD26*
21,1,1.7800,2.3620,0,0,90.0*
21,1,1.6020,2.5400,0,0,90.0*
1,1,0.1780,1.1810,0.8010*
1,1,0.1780,1.1810,-0.8010*
1,1,0.1780,-1.1810,-0.8010*
1,1,0.1780,-1.1810,0.8010*
%
%ADD26ROUNDEDRECTD26*%
G04:AMPARAMS|DCode=27|XSize=1.6mm|YSize=0.65mm|CornerRadius=0.1625mm|HoleSize=0mm|Usage=FLASHONLY|Rotation=270.000|XOffset=0mm|YOffset=0mm|HoleType=Round|Shape=RoundedRectangle|*
%AMROUNDEDRECTD27*
21,1,1.6000,0.3250,0,0,270.0*
21,1,1.2750,0.6500,0,0,270.0*
1,1,0.3250,-0.1625,-0.6375*
1,1,0.3250,-0.1625,0.6375*
1,1,0.3250,0.1625,0.6375*
1,1,0.3250,0.1625,-0.6375*
%
%ADD27ROUNDEDRECTD27*%
D14*
X-245000Y448000D02*
D03*
Y492000D02*
D03*
X-115000D02*
D03*
X-180000D02*
D03*
X-320000D02*
D03*
X-180000Y448000D02*
D03*
X-115000D02*
D03*
X-320000D02*
D03*
D15*
X-230500Y410000D02*
D03*
X-245500D02*
D03*
X-305500D02*
D03*
X-99500D02*
D03*
X-164500D02*
D03*
X-320500D02*
D03*
X-179500D02*
D03*
X-114500D02*
D03*
D16*
X5000Y-77000D02*
D03*
X-35000D02*
D03*
X-10000D02*
D03*
X30000D02*
D03*
X40000D02*
D03*
X45000D02*
D03*
X-60000Y77000D02*
D03*
X-15000Y-77000D02*
D03*
X35000D02*
D03*
X-55000Y77000D02*
D03*
X-60000Y-77000D02*
D03*
X-55000D02*
D03*
X-50000D02*
D03*
X-45000D02*
D03*
X-40000D02*
D03*
X-30000D02*
D03*
X-25000D02*
D03*
X-20000D02*
D03*
X-5000D02*
D03*
X0D02*
D03*
X10000D02*
D03*
X15000D02*
D03*
X20000D02*
D03*
X25000D02*
D03*
X50000D02*
D03*
X55000D02*
D03*
X60000D02*
D03*
Y77000D02*
D03*
X55000D02*
D03*
X50000D02*
D03*
X45000D02*
D03*
X40000D02*
D03*
X35000D02*
D03*
X30000D02*
D03*
X25000D02*
D03*
X20000D02*
D03*
X15000D02*
D03*
X10000D02*
D03*
X5000D02*
D03*
X0D02*
D03*
X-5000D02*
D03*
X-10000D02*
D03*
X-15000D02*
D03*
X-20000D02*
D03*
X-25000D02*
D03*
X-30000D02*
D03*
X-35000D02*
D03*
X-40000D02*
D03*
X-45000D02*
D03*
X-50000D02*
D03*
D17*
X272430Y303530D02*
D03*
Y290830D02*
D03*
X155000Y282000D02*
D03*
Y268000D02*
D03*
X122000Y-61000D02*
D03*
X122540Y79660D02*
D03*
X258430Y303530D02*
D03*
Y290830D02*
D03*
X141000Y282000D02*
D03*
Y268000D02*
D03*
X136540Y62610D02*
D03*
X136000Y-61000D02*
D03*
X136540Y79660D02*
D03*
X122540Y62610D02*
D03*
D18*
X66000Y297000D02*
D03*
X79000D02*
D03*
X-45720Y-123810D02*
D03*
X-31750D02*
D03*
X60370D02*
D03*
X74340D02*
D03*
X-77470Y122540D02*
D03*
X-77000Y-124000D02*
D03*
X311150Y439816D02*
D03*
X298450D02*
D03*
X27940Y358510D02*
D03*
X66000Y283000D02*
D03*
X79000D02*
D03*
X-45720Y-137810D02*
D03*
X-31750D02*
D03*
X60370D02*
D03*
X74340D02*
D03*
X-59690Y136540D02*
D03*
X-77470D02*
D03*
X-77000Y-138000D02*
D03*
X247650Y438770D02*
D03*
Y452770D02*
D03*
X298450Y425816D02*
D03*
X311150D02*
D03*
X272112Y474116D02*
D03*
Y488116D02*
D03*
X27940Y372510D02*
D03*
X-59690Y122540D02*
D03*
D19*
X273050Y330680D02*
D03*
Y390680D02*
D03*
D20*
X258142Y473616D02*
D03*
X-16000Y286500D02*
D03*
Y248500D02*
D03*
X339710Y420490D02*
D03*
X300052Y488616D02*
D03*
X258142D02*
D03*
X286082Y488616D02*
D03*
Y473616D02*
D03*
X300052Y473616D02*
D03*
X-16000Y271500D02*
D03*
Y233500D02*
D03*
X381000Y420490D02*
D03*
Y435490D02*
D03*
X339710D02*
D03*
D21*
X77000Y-50000D02*
D03*
Y60000D02*
D03*
X-77000Y-60000D02*
D03*
X77000Y-55000D02*
D03*
X-77000D02*
D03*
X77000Y-60000D02*
D03*
Y-45000D02*
D03*
Y-40000D02*
D03*
Y-35000D02*
D03*
Y-30000D02*
D03*
Y-25000D02*
D03*
Y-20000D02*
D03*
Y-15000D02*
D03*
Y-10000D02*
D03*
Y-5000D02*
D03*
Y0D02*
D03*
Y5000D02*
D03*
Y10000D02*
D03*
Y15000D02*
D03*
Y20000D02*
D03*
Y25000D02*
D03*
Y30000D02*
D03*
Y35000D02*
D03*
Y40000D02*
D03*
Y45000D02*
D03*
Y50000D02*
D03*
Y55000D02*
D03*
X-77000Y60000D02*
D03*
Y55000D02*
D03*
Y50000D02*
D03*
Y45000D02*
D03*
Y40000D02*
D03*
Y35000D02*
D03*
Y30000D02*
D03*
Y25000D02*
D03*
Y20000D02*
D03*
Y15000D02*
D03*
Y10000D02*
D03*
Y5000D02*
D03*
Y0D02*
D03*
Y-5000D02*
D03*
Y-10000D02*
D03*
Y-15000D02*
D03*
Y-20000D02*
D03*
Y-25000D02*
D03*
Y-30000D02*
D03*
Y-35000D02*
D03*
Y-40000D02*
D03*
Y-45000D02*
D03*
Y-50000D02*
D03*
D22*
X339710Y489330D02*
D03*
X381000D02*
D03*
Y473330D02*
D03*
X339710D02*
D03*
D23*
X263550Y425416D02*
D03*
Y452916D02*
D03*
X273050D02*
D03*
X282550D02*
D03*
Y425416D02*
D03*
X273050D02*
D03*
D24*
X0Y353760D02*
D03*
X-9500D02*
D03*
X9500D02*
D03*
Y381260D02*
D03*
X0D02*
D03*
X-9500D02*
D03*
D25*
X-3810Y-133350D02*
D03*
D26*
X125570Y373110D02*
D03*
Y333010D02*
D03*
X83660Y373110D02*
D03*
Y333010D02*
D03*
D27*
X6190Y-133350D02*
D03*
X-13810D02*
D03*
M02*
