G04*
G04 #@! TF.GenerationSoftware,Altium Limited,Altium Designer,23.9.2 (47)*
G04*
G04 Layer_Color=16711935*
%FSLAX44Y44*%
%MOMM*%
G71*
G04*
G04 #@! TF.SameCoordinates,81187EA9-0F26-4261-9418-41746F820DDC*
G04*
G04*
G04 #@! TF.FilePolarity,Negative*
G04*
G01*
G75*
%ADD42C,1.7032*%
%ADD43R,1.7032X1.7032*%
%ADD44C,6.2032*%
%ADD45R,1.7032X1.7032*%
%ADD46O,4.7032X2.2032*%
%ADD47O,2.2032X4.7032*%
%ADD48C,4.0032*%
%ADD49C,1.5032*%
%ADD50R,1.5032X1.5032*%
D42*
X274600Y-225000D02*
D03*
Y-199600D02*
D03*
X249200Y-225000D02*
D03*
Y-199600D02*
D03*
X223800Y-225000D02*
D03*
Y-199600D02*
D03*
X198400Y-225000D02*
D03*
Y-199600D02*
D03*
X173000Y-225000D02*
D03*
Y-199600D02*
D03*
X147600Y-225000D02*
D03*
Y-199600D02*
D03*
X122200Y-225000D02*
D03*
Y-199600D02*
D03*
X96800Y-225000D02*
D03*
Y-199600D02*
D03*
X71400Y-225000D02*
D03*
Y-199600D02*
D03*
X46000Y-225000D02*
D03*
Y-199600D02*
D03*
X20600Y-225000D02*
D03*
Y-199600D02*
D03*
X-4800Y-225000D02*
D03*
Y-199600D02*
D03*
X-30200Y-225000D02*
D03*
Y-199600D02*
D03*
X-55600Y-225000D02*
D03*
Y-199600D02*
D03*
X-81000Y-225000D02*
D03*
Y-199600D02*
D03*
X-131800Y-225000D02*
D03*
X-106400D02*
D03*
Y-199600D02*
D03*
X-182600Y-225000D02*
D03*
X-157200D02*
D03*
X-131800Y-199600D02*
D03*
X-182600D02*
D03*
X-208000D02*
D03*
X-157200D02*
D03*
X155400Y189200D02*
D03*
Y240000D02*
D03*
Y214600D02*
D03*
Y163800D02*
D03*
X130000Y189200D02*
D03*
Y214600D02*
D03*
Y163800D02*
D03*
X36000Y297200D02*
D03*
X-224200Y146000D02*
D03*
X10600Y221000D02*
D03*
X159600Y-39000D02*
D03*
X38000Y128000D02*
D03*
X-174600Y-35000D02*
D03*
X-188000Y44000D02*
D03*
X-238800D02*
D03*
X-213400D02*
D03*
X-320000Y127200D02*
D03*
Y152600D02*
D03*
Y178000D02*
D03*
Y203400D02*
D03*
Y228800D02*
D03*
Y279600D02*
D03*
Y254200D02*
D03*
X240000Y-112800D02*
D03*
Y-87400D02*
D03*
Y-62000D02*
D03*
Y-36600D02*
D03*
Y-11200D02*
D03*
Y39600D02*
D03*
Y14200D02*
D03*
X-173400Y146000D02*
D03*
X-198800D02*
D03*
X10600Y271800D02*
D03*
Y246400D02*
D03*
Y297200D02*
D03*
X36000Y271800D02*
D03*
Y246400D02*
D03*
D43*
X-208000Y-225000D02*
D03*
X-148000Y146000D02*
D03*
X185000Y-39000D02*
D03*
X63400Y128000D02*
D03*
X-200000Y-35000D02*
D03*
X-264200Y44000D02*
D03*
D44*
X-320000Y365000D02*
D03*
X380000Y-221000D02*
D03*
X-320000D02*
D03*
X380000Y365000D02*
D03*
D45*
X130000Y240000D02*
D03*
X-320000Y305000D02*
D03*
X240000Y65000D02*
D03*
X36000Y221000D02*
D03*
D46*
X180000Y410000D02*
D03*
Y470000D02*
D03*
D47*
X133000Y437000D02*
D03*
D48*
X-51700Y475100D02*
D03*
X76700D02*
D03*
D49*
X25000Y428000D02*
D03*
X0Y448000D02*
D03*
X25000D02*
D03*
D50*
X0Y428000D02*
D03*
M02*
