G04*
G04 #@! TF.GenerationSoftware,Altium Limited,Altium Designer,23.9.2 (47)*
G04*
G04 Layer_Color=8388736*
%FSLAX44Y44*%
%MOMM*%
G71*
G04*
G04 #@! TF.SameCoordinates,81187EA9-0F26-4261-9418-41746F820DDC*
G04*
G04*
G04 #@! TF.FilePolarity,Negative*
G04*
G01*
G75*
G04:AMPARAMS|DCode=28|XSize=1.2032mm|YSize=2.2032mm|CornerRadius=0.1516mm|HoleSize=0mm|Usage=FLASHONLY|Rotation=270.000|XOffset=0mm|YOffset=0mm|HoleType=Round|Shape=RoundedRectangle|*
%AMROUNDEDRECTD28*
21,1,1.2032,1.9000,0,0,270.0*
21,1,0.9000,2.2032,0,0,270.0*
1,1,0.3032,-0.9500,-0.4500*
1,1,0.3032,-0.9500,0.4500*
1,1,0.3032,0.9500,0.4500*
1,1,0.3032,0.9500,-0.4500*
%
%ADD28ROUNDEDRECTD28*%
G04:AMPARAMS|DCode=29|XSize=1.2032mm|YSize=1.2032mm|CornerRadius=0.1516mm|HoleSize=0mm|Usage=FLASHONLY|Rotation=90.000|XOffset=0mm|YOffset=0mm|HoleType=Round|Shape=RoundedRectangle|*
%AMROUNDEDRECTD29*
21,1,1.2032,0.9000,0,0,90.0*
21,1,0.9000,1.2032,0,0,90.0*
1,1,0.3032,0.4500,0.4500*
1,1,0.3032,0.4500,-0.4500*
1,1,0.3032,-0.4500,-0.4500*
1,1,0.3032,-0.4500,0.4500*
%
%ADD29ROUNDEDRECTD29*%
%ADD30O,0.5032X1.6032*%
G04:AMPARAMS|DCode=31|XSize=1.1532mm|YSize=1.3032mm|CornerRadius=0.1491mm|HoleSize=0mm|Usage=FLASHONLY|Rotation=90.000|XOffset=0mm|YOffset=0mm|HoleType=Round|Shape=RoundedRectangle|*
%AMROUNDEDRECTD31*
21,1,1.1532,1.0050,0,0,90.0*
21,1,0.8550,1.3032,0,0,90.0*
1,1,0.2982,0.5025,0.4275*
1,1,0.2982,0.5025,-0.4275*
1,1,0.2982,-0.5025,-0.4275*
1,1,0.2982,-0.5025,0.4275*
%
%ADD31ROUNDEDRECTD31*%
G04:AMPARAMS|DCode=32|XSize=1.1532mm|YSize=1.3032mm|CornerRadius=0.1491mm|HoleSize=0mm|Usage=FLASHONLY|Rotation=180.000|XOffset=0mm|YOffset=0mm|HoleType=Round|Shape=RoundedRectangle|*
%AMROUNDEDRECTD32*
21,1,1.1532,1.0050,0,0,180.0*
21,1,0.8550,1.3032,0,0,180.0*
1,1,0.2982,-0.4275,0.5025*
1,1,0.2982,0.4275,0.5025*
1,1,0.2982,0.4275,-0.5025*
1,1,0.2982,-0.4275,-0.5025*
%
%ADD32ROUNDEDRECTD32*%
G04:AMPARAMS|DCode=33|XSize=2.5032mm|YSize=3.7032mm|CornerRadius=0.2166mm|HoleSize=0mm|Usage=FLASHONLY|Rotation=90.000|XOffset=0mm|YOffset=0mm|HoleType=Round|Shape=RoundedRectangle|*
%AMROUNDEDRECTD33*
21,1,2.5032,3.2700,0,0,90.0*
21,1,2.0700,3.7032,0,0,90.0*
1,1,0.4332,1.6350,1.0350*
1,1,0.4332,1.6350,-1.0350*
1,1,0.4332,-1.6350,-1.0350*
1,1,0.4332,-1.6350,1.0350*
%
%ADD33ROUNDEDRECTD33*%
G04:AMPARAMS|DCode=34|XSize=1.2032mm|YSize=1.2032mm|CornerRadius=0.1516mm|HoleSize=0mm|Usage=FLASHONLY|Rotation=0.000|XOffset=0mm|YOffset=0mm|HoleType=Round|Shape=RoundedRectangle|*
%AMROUNDEDRECTD34*
21,1,1.2032,0.9000,0,0,0.0*
21,1,0.9000,1.2032,0,0,0.0*
1,1,0.3032,0.4500,-0.4500*
1,1,0.3032,-0.4500,-0.4500*
1,1,0.3032,-0.4500,0.4500*
1,1,0.3032,0.4500,0.4500*
%
%ADD34ROUNDEDRECTD34*%
%ADD35O,1.6032X0.5032*%
G04:AMPARAMS|DCode=36|XSize=0.9032mm|YSize=0.9032mm|CornerRadius=0.1366mm|HoleSize=0mm|Usage=FLASHONLY|Rotation=0.000|XOffset=0mm|YOffset=0mm|HoleType=Round|Shape=RoundedRectangle|*
%AMROUNDEDRECTD36*
21,1,0.9032,0.6300,0,0,0.0*
21,1,0.6300,0.9032,0,0,0.0*
1,1,0.2732,0.3150,-0.3150*
1,1,0.2732,-0.3150,-0.3150*
1,1,0.2732,-0.3150,0.3150*
1,1,0.2732,0.3150,0.3150*
%
%ADD36ROUNDEDRECTD36*%
G04:AMPARAMS|DCode=37|XSize=0.8032mm|YSize=1.2032mm|CornerRadius=0.1616mm|HoleSize=0mm|Usage=FLASHONLY|Rotation=180.000|XOffset=0mm|YOffset=0mm|HoleType=Round|Shape=RoundedRectangle|*
%AMROUNDEDRECTD37*
21,1,0.8032,0.8800,0,0,180.0*
21,1,0.4800,1.2032,0,0,180.0*
1,1,0.3232,-0.2400,0.4400*
1,1,0.3232,0.2400,0.4400*
1,1,0.3232,0.2400,-0.4400*
1,1,0.3232,-0.2400,-0.4400*
%
%ADD37ROUNDEDRECTD37*%
G04:AMPARAMS|DCode=38|XSize=0.8032mm|YSize=1.2032mm|CornerRadius=0.2516mm|HoleSize=0mm|Usage=FLASHONLY|Rotation=180.000|XOffset=0mm|YOffset=0mm|HoleType=Round|Shape=RoundedRectangle|*
%AMROUNDEDRECTD38*
21,1,0.8032,0.7000,0,0,180.0*
21,1,0.3000,1.2032,0,0,180.0*
1,1,0.5032,-0.1500,0.3500*
1,1,0.5032,0.1500,0.3500*
1,1,0.5032,0.1500,-0.3500*
1,1,0.5032,-0.1500,-0.3500*
%
%ADD38ROUNDEDRECTD38*%
G04:AMPARAMS|DCode=39|XSize=1.8032mm|YSize=0.6532mm|CornerRadius=0.2141mm|HoleSize=0mm|Usage=FLASHONLY|Rotation=270.000|XOffset=0mm|YOffset=0mm|HoleType=Round|Shape=RoundedRectangle|*
%AMROUNDEDRECTD39*
21,1,1.8032,0.2250,0,0,270.0*
21,1,1.3750,0.6532,0,0,270.0*
1,1,0.4282,-0.1125,-0.6875*
1,1,0.4282,-0.1125,0.6875*
1,1,0.4282,0.1125,0.6875*
1,1,0.4282,0.1125,-0.6875*
%
%ADD39ROUNDEDRECTD39*%
G04:AMPARAMS|DCode=40|XSize=1.9832mm|YSize=2.7432mm|CornerRadius=0.1906mm|HoleSize=0mm|Usage=FLASHONLY|Rotation=90.000|XOffset=0mm|YOffset=0mm|HoleType=Round|Shape=RoundedRectangle|*
%AMROUNDEDRECTD40*
21,1,1.9832,2.3620,0,0,90.0*
21,1,1.6020,2.7432,0,0,90.0*
1,1,0.3812,1.1810,0.8010*
1,1,0.3812,1.1810,-0.8010*
1,1,0.3812,-1.1810,-0.8010*
1,1,0.3812,-1.1810,0.8010*
%
%ADD40ROUNDEDRECTD40*%
G04:AMPARAMS|DCode=41|XSize=1.8032mm|YSize=0.8532mm|CornerRadius=0.2641mm|HoleSize=0mm|Usage=FLASHONLY|Rotation=270.000|XOffset=0mm|YOffset=0mm|HoleType=Round|Shape=RoundedRectangle|*
%AMROUNDEDRECTD41*
21,1,1.8032,0.3250,0,0,270.0*
21,1,1.2750,0.8532,0,0,270.0*
1,1,0.5282,-0.1625,-0.6375*
1,1,0.5282,-0.1625,0.6375*
1,1,0.5282,0.1625,0.6375*
1,1,0.5282,0.1625,-0.6375*
%
%ADD41ROUNDEDRECTD41*%
%ADD42C,1.7032*%
%ADD43R,1.7032X1.7032*%
%ADD44C,6.2032*%
%ADD45R,1.7032X1.7032*%
%ADD46O,4.7032X2.2032*%
%ADD47O,2.2032X4.7032*%
%ADD48C,4.0032*%
%ADD49C,1.5032*%
%ADD50R,1.5032X1.5032*%
G36*
X-306033Y-164469D02*
X-335967D01*
Y6469D01*
X-306033D01*
Y-164469D01*
D02*
G37*
%LPC*%
G36*
X-324387Y1469D02*
X-324692D01*
X-325498Y1413D01*
X-326247Y1302D01*
X-326858Y1108D01*
X-327413Y913D01*
X-327635Y803D01*
X-327830Y691D01*
X-327996Y608D01*
X-328163Y497D01*
X-328274Y442D01*
X-328357Y386D01*
X-328385Y331D01*
X-328413D01*
X-328912Y-114D01*
X-329329Y-558D01*
X-329662Y-1030D01*
X-329912Y-1446D01*
X-330078Y-1835D01*
X-330217Y-2140D01*
X-330245Y-2251D01*
X-330273Y-2335D01*
X-330300Y-2390D01*
Y-2418D01*
X-330356Y-2640D01*
X-330411Y-2918D01*
X-330439Y-3251D01*
X-330467Y-3584D01*
X-330522Y-4361D01*
X-330578Y-5139D01*
Y-5860D01*
X-330606Y-6166D01*
Y-13245D01*
X-311394D01*
Y-9359D01*
X-318640D01*
Y-5916D01*
X-318668Y-5500D01*
Y-5111D01*
X-318696Y-4750D01*
X-318724Y-4417D01*
X-318751Y-4111D01*
X-318779Y-3862D01*
Y-3612D01*
X-318807Y-3417D01*
X-318835Y-3223D01*
X-318862Y-3084D01*
Y-2973D01*
X-318890Y-2890D01*
Y-2834D01*
X-319001Y-2446D01*
X-319140Y-2085D01*
X-319279Y-1752D01*
X-319445Y-1446D01*
X-319584Y-1196D01*
X-319695Y-1002D01*
X-319778Y-891D01*
X-319806Y-835D01*
X-320084Y-475D01*
X-320389Y-169D01*
X-320722Y136D01*
X-321000Y358D01*
X-321278Y553D01*
X-321500Y691D01*
X-321638Y775D01*
X-321694Y803D01*
X-322166Y1025D01*
X-322666Y1191D01*
X-323193Y1302D01*
X-323665Y1385D01*
X-324054Y1441D01*
X-324248D01*
X-324387Y1469D01*
D02*
G37*
G36*
X-311033Y-17354D02*
D01*
Y-24794D01*
X-311061Y-23989D01*
X-311117Y-23267D01*
X-311228Y-22629D01*
X-311339Y-22101D01*
X-311367Y-21879D01*
X-311422Y-21657D01*
X-311478Y-21491D01*
X-311533Y-21352D01*
X-311561Y-21241D01*
X-311589Y-21157D01*
X-311616Y-21130D01*
Y-21102D01*
X-311838Y-20602D01*
X-312116Y-20158D01*
X-312366Y-19769D01*
X-312616Y-19436D01*
X-312838Y-19186D01*
X-313004Y-18992D01*
X-313116Y-18881D01*
X-313171Y-18853D01*
X-313560Y-18548D01*
X-313976Y-18298D01*
X-314365Y-18104D01*
X-314753Y-17937D01*
X-315087Y-17826D01*
X-315364Y-17743D01*
X-315448Y-17715D01*
X-315531D01*
X-315559Y-17687D01*
X-315586D01*
X-315892Y-17632D01*
X-316225Y-17576D01*
X-316586Y-17521D01*
X-316947Y-17493D01*
X-317780Y-17437D01*
X-318585Y-17382D01*
X-318946D01*
X-319307D01*
X-319640Y-17354D01*
X-311033D01*
X-319640D01*
D01*
X-330606D01*
Y-21241D01*
X-319945D01*
X-319529D01*
X-319140D01*
X-318779Y-21268D01*
X-318446D01*
X-318168Y-21296D01*
X-317891D01*
X-317641Y-21324D01*
X-317419D01*
X-317085Y-21379D01*
X-316836Y-21407D01*
X-316697Y-21435D01*
X-316641D01*
X-316280Y-21518D01*
X-315975Y-21657D01*
X-315697Y-21824D01*
X-315448Y-21990D01*
X-315253Y-22157D01*
X-315114Y-22296D01*
X-315031Y-22407D01*
X-315003Y-22434D01*
X-314781Y-22768D01*
X-314615Y-23184D01*
X-314504Y-23573D01*
X-314420Y-23989D01*
X-314365Y-24350D01*
X-314337Y-24628D01*
Y-24905D01*
X-314365Y-25488D01*
X-314448Y-25988D01*
X-314559Y-26432D01*
X-314698Y-26821D01*
X-314809Y-27099D01*
X-314920Y-27321D01*
X-315003Y-27432D01*
X-315031Y-27487D01*
X-315309Y-27793D01*
X-315642Y-28042D01*
X-315947Y-28265D01*
X-316253Y-28403D01*
X-316530Y-28514D01*
X-316752Y-28598D01*
X-316891Y-28653D01*
X-316947D01*
X-317113Y-28681D01*
X-317280Y-28709D01*
X-317502D01*
X-317752Y-28737D01*
X-318279Y-28764D01*
X-318835D01*
X-319334Y-28792D01*
X-319556D01*
X-319778D01*
X-319945D01*
X-320056D01*
X-320139D01*
X-320167D01*
X-330606D01*
Y-24905D01*
Y-32679D01*
X-319751D01*
X-319195Y-32651D01*
X-318668D01*
X-318196Y-32623D01*
X-317752Y-32595D01*
X-317363Y-32568D01*
X-317002Y-32540D01*
X-316669Y-32484D01*
X-316392Y-32457D01*
X-316142Y-32429D01*
X-315919Y-32401D01*
X-315753Y-32373D01*
X-315614Y-32346D01*
X-315531D01*
X-315475Y-32318D01*
X-315448D01*
X-315031Y-32179D01*
X-314643Y-32040D01*
X-314282Y-31846D01*
X-313976Y-31679D01*
X-313699Y-31513D01*
X-313477Y-31374D01*
X-313365Y-31263D01*
X-313310Y-31235D01*
X-312949Y-30902D01*
X-312616Y-30541D01*
X-312338Y-30152D01*
X-312088Y-29792D01*
X-311894Y-29486D01*
X-311755Y-29209D01*
X-311672Y-29042D01*
X-311644Y-29014D01*
Y-28986D01*
X-311533Y-28709D01*
X-311450Y-28403D01*
X-311283Y-27709D01*
X-311172Y-27015D01*
X-311117Y-26349D01*
X-311089Y-26044D01*
X-311061Y-25738D01*
Y-25488D01*
X-311033Y-25238D01*
Y-17354D01*
D02*
G37*
G36*
Y-35677D02*
X-320972D01*
X-321833Y-35705D01*
X-322638Y-35788D01*
X-323388Y-35899D01*
X-324109Y-36066D01*
X-324748Y-36260D01*
X-325359Y-36482D01*
X-325914Y-36704D01*
X-326386Y-36954D01*
X-326830Y-37204D01*
X-327219Y-37426D01*
X-327552Y-37648D01*
X-327830Y-37843D01*
X-328024Y-37981D01*
X-328190Y-38120D01*
X-328274Y-38203D01*
X-328302Y-38231D01*
X-328773Y-38731D01*
X-329190Y-39258D01*
X-329551Y-39814D01*
X-329856Y-40369D01*
X-330106Y-40952D01*
X-330328Y-41507D01*
X-330495Y-42062D01*
X-330634Y-42590D01*
X-330745Y-43090D01*
X-330828Y-43562D01*
X-330883Y-43978D01*
X-330939Y-44339D01*
Y-44616D01*
X-330967Y-44839D01*
Y-35677D01*
Y-54306D01*
D01*
Y-45033D01*
X-330939Y-45866D01*
X-330856Y-46671D01*
X-330717Y-47365D01*
X-330578Y-47976D01*
X-330495Y-48226D01*
X-330439Y-48475D01*
X-330384Y-48670D01*
X-330300Y-48836D01*
X-330273Y-48975D01*
X-330217Y-49086D01*
X-330189Y-49142D01*
Y-49170D01*
X-329967Y-49669D01*
X-329690Y-50141D01*
X-329384Y-50558D01*
X-329107Y-50918D01*
X-328857Y-51224D01*
X-328635Y-51474D01*
X-328496Y-51613D01*
X-328468Y-51640D01*
X-328440Y-51668D01*
X-327996Y-52057D01*
X-327524Y-52418D01*
X-327108Y-52723D01*
X-326691Y-52973D01*
X-326330Y-53167D01*
X-326053Y-53334D01*
X-325942Y-53362D01*
X-325858Y-53417D01*
X-325831Y-53445D01*
X-325803D01*
X-325025Y-53723D01*
X-324193Y-53945D01*
X-323360Y-54083D01*
X-322583Y-54194D01*
X-322222Y-54222D01*
X-321888Y-54250D01*
X-321611Y-54278D01*
X-321361D01*
X-321139Y-54306D01*
X-311033D01*
X-320861D01*
X-320028Y-54278D01*
X-319223Y-54194D01*
X-318474Y-54083D01*
X-317780Y-53917D01*
X-317141Y-53723D01*
X-316558Y-53500D01*
X-316003Y-53278D01*
X-315531Y-53028D01*
X-315087Y-52806D01*
X-314726Y-52584D01*
X-314393Y-52362D01*
X-314115Y-52168D01*
X-313921Y-52001D01*
X-313754Y-51890D01*
X-313671Y-51807D01*
X-313643Y-51779D01*
X-313171Y-51279D01*
X-312782Y-50752D01*
X-312421Y-50224D01*
X-312144Y-49641D01*
X-311894Y-49086D01*
X-311672Y-48503D01*
X-311505Y-47976D01*
X-311367Y-47421D01*
X-311255Y-46921D01*
X-311172Y-46449D01*
X-311117Y-46032D01*
X-311089Y-45671D01*
X-311061Y-45394D01*
X-311033Y-45172D01*
Y-44755D01*
Y-44977D01*
X-311061Y-44200D01*
X-311144Y-43478D01*
X-311283Y-42784D01*
X-311450Y-42146D01*
X-311644Y-41535D01*
X-311866Y-40980D01*
X-312088Y-40480D01*
X-312338Y-40008D01*
X-312588Y-39619D01*
X-312810Y-39258D01*
X-313032Y-38953D01*
X-313227Y-38703D01*
X-313393Y-38481D01*
X-313532Y-38342D01*
X-313615Y-38259D01*
X-313643Y-38231D01*
X-314170Y-37787D01*
X-314726Y-37398D01*
X-315309Y-37037D01*
X-315892Y-36760D01*
X-316502Y-36510D01*
X-317113Y-36288D01*
X-317724Y-36121D01*
X-318307Y-35982D01*
X-318835Y-35899D01*
X-319362Y-35816D01*
X-319806Y-35760D01*
X-320195Y-35705D01*
X-320528D01*
X-320778Y-35677D01*
X-311033D01*
D02*
G37*
G36*
X-311394Y-55610D02*
X-315142Y-57970D01*
X-315531Y-58220D01*
X-315919Y-58470D01*
X-316253Y-58692D01*
X-316558Y-58914D01*
X-316836Y-59108D01*
X-317113Y-59275D01*
X-317530Y-59608D01*
X-317863Y-59858D01*
X-318085Y-60024D01*
X-318224Y-60163D01*
X-318252Y-60191D01*
X-318585Y-60496D01*
X-318890Y-60857D01*
X-319140Y-61191D01*
X-319390Y-61524D01*
X-319584Y-61801D01*
X-319723Y-62023D01*
X-319834Y-62190D01*
X-319862Y-62218D01*
Y-62245D01*
X-319945Y-61774D01*
X-320056Y-61357D01*
X-320167Y-60968D01*
X-320306Y-60580D01*
X-320445Y-60247D01*
X-320584Y-59941D01*
X-320722Y-59636D01*
X-320889Y-59386D01*
X-321028Y-59164D01*
X-321167Y-58969D01*
X-321305Y-58803D01*
X-321417Y-58692D01*
X-321500Y-58581D01*
X-321583Y-58498D01*
X-321611Y-58470D01*
X-321638Y-58442D01*
X-321916Y-58220D01*
X-322194Y-58026D01*
X-322805Y-57692D01*
X-323388Y-57470D01*
X-323971Y-57332D01*
X-324470Y-57221D01*
X-324665Y-57193D01*
X-324859D01*
X-324998Y-57165D01*
X-325137D01*
X-325192D01*
X-325220D01*
X-325831Y-57193D01*
X-326414Y-57304D01*
X-326913Y-57443D01*
X-327358Y-57581D01*
X-327719Y-57748D01*
X-327996Y-57887D01*
X-328079Y-57942D01*
X-328163Y-57998D01*
X-328190Y-58026D01*
X-328218D01*
X-328690Y-58359D01*
X-329079Y-58720D01*
X-329384Y-59081D01*
X-329662Y-59441D01*
X-329828Y-59775D01*
X-329967Y-60024D01*
X-330051Y-60191D01*
X-330078Y-60219D01*
Y-60247D01*
X-330162Y-60524D01*
X-330245Y-60830D01*
X-330384Y-61524D01*
X-330467Y-62273D01*
X-330550Y-62995D01*
Y-63356D01*
X-330578Y-63661D01*
Y-63967D01*
X-330606Y-64217D01*
Y-72878D01*
X-311394D01*
Y-55610D01*
D02*
G37*
G36*
X-311033Y-76487D02*
X-330967D01*
Y-94450D01*
D01*
Y-84927D01*
X-330939Y-85927D01*
X-330828Y-86815D01*
X-330745Y-87204D01*
X-330661Y-87592D01*
X-330578Y-87953D01*
X-330495Y-88259D01*
X-330384Y-88536D01*
X-330300Y-88814D01*
X-330217Y-89008D01*
X-330162Y-89203D01*
X-330078Y-89341D01*
X-330051Y-89452D01*
X-329995Y-89508D01*
Y-89536D01*
X-329495Y-90396D01*
X-329190Y-90757D01*
X-328912Y-91118D01*
X-328607Y-91451D01*
X-328302Y-91757D01*
X-327996Y-92034D01*
X-327719Y-92284D01*
X-327441Y-92479D01*
X-327191Y-92673D01*
X-326969Y-92839D01*
X-326775Y-92978D01*
X-326608Y-93062D01*
X-326497Y-93145D01*
X-326414Y-93173D01*
X-326386Y-93200D01*
X-325942Y-93422D01*
X-325498Y-93617D01*
X-324581Y-93922D01*
X-323665Y-94144D01*
X-322860Y-94283D01*
X-322471Y-94339D01*
X-322138Y-94394D01*
X-321833Y-94422D01*
X-321555D01*
X-321361Y-94450D01*
X-321055D01*
X-320028Y-94394D01*
X-319084Y-94283D01*
X-318224Y-94089D01*
X-317807Y-94005D01*
X-317446Y-93894D01*
X-317113Y-93783D01*
X-316808Y-93700D01*
X-316558Y-93589D01*
X-316336Y-93506D01*
X-316169Y-93450D01*
X-316031Y-93395D01*
X-315947Y-93339D01*
X-315919D01*
X-315087Y-92867D01*
X-314365Y-92340D01*
X-313726Y-91784D01*
X-313227Y-91229D01*
X-313004Y-90979D01*
X-312810Y-90730D01*
X-312644Y-90535D01*
X-312533Y-90341D01*
X-312421Y-90202D01*
X-312338Y-90063D01*
X-312310Y-90008D01*
X-312283Y-89980D01*
X-312061Y-89536D01*
X-311866Y-89119D01*
X-311561Y-88203D01*
X-311339Y-87315D01*
X-311200Y-86510D01*
X-311144Y-86121D01*
X-311089Y-85788D01*
X-311061Y-85482D01*
Y-85205D01*
X-311033Y-85010D01*
Y-84705D01*
X-311061Y-83817D01*
X-311172Y-82984D01*
X-311311Y-82179D01*
X-311478Y-81485D01*
X-311561Y-81179D01*
X-311644Y-80902D01*
X-311727Y-80652D01*
X-311783Y-80430D01*
X-311838Y-80263D01*
X-311894Y-80152D01*
X-311922Y-80069D01*
Y-80041D01*
X-312255Y-79208D01*
X-312616Y-78514D01*
X-312977Y-77903D01*
X-313282Y-77376D01*
X-313560Y-76987D01*
X-313671Y-76848D01*
X-313782Y-76710D01*
X-313865Y-76626D01*
X-313921Y-76543D01*
X-313976Y-76487D01*
X-311033D01*
D02*
G37*
G36*
X-316697Y-104527D02*
X-330967D01*
X-316975D01*
X-317641Y-104555D01*
X-318224Y-104638D01*
X-318751Y-104777D01*
X-319195Y-104916D01*
X-319556Y-105055D01*
X-319806Y-105194D01*
X-319973Y-105277D01*
X-320028Y-105305D01*
X-320472Y-105610D01*
X-320861Y-105971D01*
X-321194Y-106332D01*
X-321472Y-106665D01*
X-321694Y-106970D01*
X-321861Y-107220D01*
X-321972Y-107387D01*
X-322000Y-107415D01*
Y-107442D01*
X-322138Y-107720D01*
X-322277Y-107998D01*
X-322527Y-108664D01*
X-322749Y-109358D01*
X-322971Y-110024D01*
X-323054Y-110330D01*
X-323138Y-110635D01*
X-323221Y-110913D01*
X-323276Y-111135D01*
X-323332Y-111329D01*
X-323360Y-111468D01*
X-323388Y-111579D01*
Y-111607D01*
X-323526Y-112106D01*
X-323637Y-112551D01*
X-323749Y-112967D01*
X-323859Y-113356D01*
X-323971Y-113661D01*
X-324082Y-113966D01*
X-324193Y-114216D01*
X-324276Y-114438D01*
X-324359Y-114633D01*
X-324442Y-114772D01*
X-324498Y-114910D01*
X-324554Y-114994D01*
X-324637Y-115133D01*
X-324665Y-115160D01*
X-324859Y-115355D01*
X-325053Y-115493D01*
X-325248Y-115577D01*
X-325442Y-115632D01*
X-325581Y-115688D01*
X-325720Y-115716D01*
X-325803D01*
X-325831D01*
X-326108Y-115688D01*
X-326330Y-115632D01*
X-326553Y-115521D01*
X-326719Y-115410D01*
X-326858Y-115299D01*
X-326941Y-115188D01*
X-326997Y-115133D01*
X-327024Y-115105D01*
X-327274Y-114716D01*
X-327441Y-114300D01*
X-327580Y-113855D01*
X-327663Y-113439D01*
X-327719Y-113078D01*
X-327746Y-112773D01*
Y-112495D01*
X-327719Y-111912D01*
X-327635Y-111412D01*
X-327524Y-110996D01*
X-327413Y-110663D01*
X-327302Y-110385D01*
X-327191Y-110191D01*
X-327108Y-110080D01*
X-327080Y-110052D01*
X-326802Y-109774D01*
X-326469Y-109524D01*
X-326136Y-109330D01*
X-325775Y-109191D01*
X-325470Y-109080D01*
X-325220Y-109025D01*
X-325025Y-108969D01*
X-324998D01*
X-324970D01*
X-325109Y-105083D01*
X-325608Y-105110D01*
X-326053Y-105194D01*
X-326497Y-105305D01*
X-326886Y-105443D01*
X-327274Y-105582D01*
X-327635Y-105749D01*
X-327941Y-105915D01*
X-328246Y-106082D01*
X-328496Y-106276D01*
X-328718Y-106443D01*
X-328912Y-106609D01*
X-329079Y-106748D01*
X-329190Y-106859D01*
X-329273Y-106943D01*
X-329329Y-106998D01*
X-329356Y-107026D01*
X-329634Y-107387D01*
X-329884Y-107775D01*
X-330106Y-108192D01*
X-330300Y-108636D01*
X-330439Y-109080D01*
X-330578Y-109524D01*
X-330772Y-110413D01*
X-330828Y-110829D01*
X-330883Y-111190D01*
X-330911Y-111551D01*
X-330939Y-111856D01*
X-330967Y-112106D01*
Y-112439D01*
X-330939Y-113245D01*
X-330856Y-113966D01*
X-330745Y-114605D01*
X-330634Y-115160D01*
X-330550Y-115410D01*
X-330495Y-115632D01*
X-330439Y-115799D01*
X-330384Y-115965D01*
X-330328Y-116076D01*
X-330300Y-116160D01*
X-330273Y-116215D01*
Y-116243D01*
X-329995Y-116798D01*
X-329690Y-117270D01*
X-329356Y-117687D01*
X-329051Y-118020D01*
X-328773Y-118297D01*
X-328551Y-118464D01*
X-328385Y-118603D01*
X-328357Y-118631D01*
X-328329D01*
X-327857Y-118908D01*
X-327358Y-119102D01*
X-326886Y-119241D01*
X-326469Y-119325D01*
X-326108Y-119380D01*
X-325831Y-119436D01*
X-325720D01*
X-325636D01*
X-325608D01*
X-325581D01*
X-325164Y-119408D01*
X-324748Y-119352D01*
X-324387Y-119269D01*
X-324026Y-119158D01*
X-323360Y-118880D01*
X-322777Y-118547D01*
X-322527Y-118408D01*
X-322333Y-118242D01*
X-322138Y-118103D01*
X-321972Y-117964D01*
X-321861Y-117853D01*
X-321777Y-117770D01*
X-321722Y-117714D01*
X-321694Y-117687D01*
X-321500Y-117437D01*
X-321305Y-117131D01*
X-321111Y-116826D01*
X-320945Y-116465D01*
X-320611Y-115771D01*
X-320334Y-115049D01*
X-320223Y-114688D01*
X-320112Y-114383D01*
X-320028Y-114078D01*
X-319945Y-113828D01*
X-319890Y-113633D01*
X-319834Y-113467D01*
X-319806Y-113356D01*
Y-113328D01*
X-319695Y-112884D01*
X-319584Y-112495D01*
X-319501Y-112134D01*
X-319418Y-111801D01*
X-319334Y-111523D01*
X-319279Y-111273D01*
X-319195Y-111051D01*
X-319140Y-110857D01*
X-319112Y-110690D01*
X-319057Y-110552D01*
X-319001Y-110357D01*
X-318946Y-110246D01*
Y-110219D01*
X-318807Y-109858D01*
X-318668Y-109580D01*
X-318529Y-109330D01*
X-318390Y-109136D01*
X-318279Y-108997D01*
X-318196Y-108914D01*
X-318141Y-108858D01*
X-318113Y-108830D01*
X-317918Y-108692D01*
X-317724Y-108581D01*
X-317530Y-108525D01*
X-317363Y-108469D01*
X-317197Y-108442D01*
X-317058Y-108414D01*
X-316975D01*
X-316947D01*
X-316558Y-108442D01*
X-316225Y-108553D01*
X-315892Y-108719D01*
X-315614Y-108886D01*
X-315392Y-109080D01*
X-315226Y-109219D01*
X-315114Y-109330D01*
X-315087Y-109386D01*
X-314837Y-109774D01*
X-314643Y-110219D01*
X-314504Y-110690D01*
X-314420Y-111135D01*
X-314365Y-111551D01*
X-314309Y-111884D01*
Y-112190D01*
X-314337Y-112828D01*
X-314448Y-113383D01*
X-314587Y-113855D01*
X-314753Y-114272D01*
X-314920Y-114605D01*
X-315059Y-114827D01*
X-315170Y-114966D01*
X-315198Y-115021D01*
X-315586Y-115382D01*
X-316003Y-115660D01*
X-316475Y-115910D01*
X-316947Y-116076D01*
X-317363Y-116215D01*
X-317696Y-116326D01*
X-317807Y-116354D01*
X-317918D01*
X-317974Y-116382D01*
X-318002D01*
X-317641Y-120157D01*
D01*
X-317058Y-120074D01*
X-316502Y-119963D01*
X-315975Y-119796D01*
X-315503Y-119658D01*
X-315059Y-119463D01*
X-314643Y-119269D01*
X-314282Y-119075D01*
X-313948Y-118880D01*
X-313671Y-118686D01*
X-313421Y-118492D01*
X-313199Y-118325D01*
X-313004Y-118159D01*
X-312866Y-118048D01*
X-312782Y-117936D01*
X-312727Y-117881D01*
X-312699Y-117853D01*
X-312394Y-117465D01*
X-312144Y-117048D01*
X-311922Y-116604D01*
X-311727Y-116132D01*
X-311589Y-115688D01*
X-311450Y-115216D01*
X-311255Y-114300D01*
X-311172Y-113883D01*
X-311117Y-113495D01*
X-311089Y-113161D01*
X-311061Y-112856D01*
X-311033Y-112606D01*
Y-112245D01*
X-311061Y-111357D01*
X-311144Y-110552D01*
X-311255Y-109830D01*
X-311311Y-109524D01*
X-311394Y-109219D01*
X-311450Y-108969D01*
X-311505Y-108747D01*
X-311561Y-108553D01*
X-311616Y-108386D01*
X-311672Y-108247D01*
X-311700Y-108164D01*
X-311727Y-108109D01*
Y-108081D01*
X-312033Y-107470D01*
X-312366Y-106970D01*
X-312699Y-106498D01*
X-313060Y-106138D01*
X-313365Y-105860D01*
X-313643Y-105638D01*
X-313810Y-105527D01*
X-313837Y-105471D01*
X-313865D01*
X-314420Y-105166D01*
X-314948Y-104916D01*
X-315475Y-104749D01*
X-315975Y-104638D01*
X-316364Y-104583D01*
X-316558Y-104555D01*
X-316697Y-104527D01*
D02*
G37*
G36*
X-311394Y-122434D02*
X-314643D01*
Y-133150D01*
X-319862D01*
Y-123517D01*
X-323110D01*
Y-133150D01*
X-327358D01*
Y-122795D01*
X-330606D01*
Y-137037D01*
X-311394D01*
Y-122434D01*
D02*
G37*
G36*
Y-140979D02*
X-330606D01*
Y-159469D01*
X-311394D01*
Y-153666D01*
Y-155887D01*
X-326497D01*
X-311394Y-152112D01*
Y-153666D01*
Y-152112D01*
D01*
Y-148364D01*
X-326497Y-144588D01*
X-311394Y-144560D01*
Y-140979D01*
D02*
G37*
%LPD*%
G36*
X-324304Y-2557D02*
X-324026Y-2585D01*
X-323776Y-2668D01*
X-323554Y-2751D01*
X-323360Y-2834D01*
X-323221Y-2890D01*
X-323138Y-2945D01*
X-323110Y-2973D01*
X-322888Y-3140D01*
X-322693Y-3362D01*
X-322527Y-3556D01*
X-322388Y-3751D01*
X-322305Y-3917D01*
X-322222Y-4056D01*
X-322194Y-4167D01*
X-322166Y-4195D01*
X-322110Y-4361D01*
X-322083Y-4556D01*
X-322000Y-5000D01*
X-321944Y-5500D01*
X-321916Y-5999D01*
Y-6499D01*
X-321888Y-6693D01*
Y-9359D01*
X-327358D01*
Y-6471D01*
X-327330Y-6194D01*
Y-5944D01*
X-327302Y-5694D01*
Y-5333D01*
X-327274Y-5055D01*
X-327247Y-4861D01*
X-327219Y-4750D01*
Y-4722D01*
X-327136Y-4389D01*
X-327024Y-4084D01*
X-326886Y-3806D01*
X-326719Y-3584D01*
X-326580Y-3417D01*
X-326469Y-3279D01*
X-326386Y-3195D01*
X-326358Y-3167D01*
X-326081Y-2945D01*
X-325803Y-2807D01*
X-325498Y-2695D01*
X-325220Y-2612D01*
X-324970Y-2557D01*
X-324776Y-2529D01*
X-324665D01*
X-324609D01*
X-324304Y-2557D01*
D02*
G37*
G36*
X-320445Y-39703D02*
X-319862Y-39730D01*
X-319334Y-39814D01*
X-318862Y-39897D01*
X-318390Y-40008D01*
X-317974Y-40147D01*
X-317613Y-40286D01*
X-317280Y-40424D01*
X-316975Y-40563D01*
X-316725Y-40702D01*
X-316502Y-40813D01*
X-316308Y-40952D01*
X-316169Y-41035D01*
X-316086Y-41118D01*
X-316031Y-41146D01*
X-316003Y-41174D01*
X-315697Y-41452D01*
X-315448Y-41757D01*
X-315226Y-42090D01*
X-315031Y-42396D01*
X-314892Y-42729D01*
X-314753Y-43034D01*
X-314559Y-43645D01*
X-314420Y-44172D01*
X-314393Y-44394D01*
X-314365Y-44589D01*
X-314337Y-44755D01*
Y-44977D01*
X-314365Y-45394D01*
X-314420Y-45810D01*
X-314504Y-46199D01*
X-314615Y-46560D01*
X-314865Y-47226D01*
X-315198Y-47754D01*
X-315336Y-48004D01*
X-315503Y-48198D01*
X-315642Y-48392D01*
X-315781Y-48531D01*
X-315864Y-48642D01*
X-315947Y-48725D01*
X-316003Y-48781D01*
X-316031Y-48809D01*
X-316364Y-49058D01*
X-316725Y-49308D01*
X-317113Y-49503D01*
X-317530Y-49669D01*
X-318335Y-49947D01*
X-319140Y-50113D01*
X-319529Y-50169D01*
X-319862Y-50224D01*
X-320195Y-50252D01*
X-320472Y-50280D01*
X-320695Y-50308D01*
X-320861D01*
X-320972D01*
X-321000D01*
X-321611Y-50280D01*
X-322166Y-50252D01*
X-322693Y-50169D01*
X-323193Y-50086D01*
X-323637Y-49975D01*
X-324054Y-49864D01*
X-324415Y-49725D01*
X-324748Y-49586D01*
X-325053Y-49447D01*
X-325303Y-49308D01*
X-325498Y-49197D01*
X-325692Y-49086D01*
X-325831Y-49003D01*
X-325914Y-48920D01*
X-325970Y-48892D01*
X-325997Y-48864D01*
X-326303Y-48587D01*
X-326553Y-48281D01*
X-326775Y-47948D01*
X-326969Y-47643D01*
X-327136Y-47309D01*
X-327247Y-46976D01*
X-327469Y-46365D01*
X-327580Y-45810D01*
X-327607Y-45588D01*
X-327635Y-45366D01*
X-327663Y-45199D01*
Y-44977D01*
X-327635Y-44533D01*
X-327580Y-44117D01*
X-327524Y-43728D01*
X-327413Y-43367D01*
X-327136Y-42729D01*
X-326997Y-42423D01*
X-326858Y-42173D01*
X-326691Y-41923D01*
X-326553Y-41729D01*
X-326414Y-41563D01*
X-326275Y-41396D01*
X-326164Y-41285D01*
X-326108Y-41202D01*
X-326053Y-41174D01*
X-326025Y-41146D01*
X-325692Y-40896D01*
X-325331Y-40647D01*
X-324970Y-40452D01*
X-324554Y-40286D01*
X-323721Y-40036D01*
X-322916Y-39869D01*
X-322555Y-39786D01*
X-322194Y-39758D01*
X-321888Y-39730D01*
X-321611Y-39703D01*
X-321361Y-39675D01*
X-321194D01*
X-321083D01*
X-321055D01*
X-320445Y-39703D01*
D02*
G37*
G36*
X-311394Y-68992D02*
X-319418D01*
Y-67742D01*
X-319390Y-67354D01*
X-319362Y-67021D01*
X-319307Y-66743D01*
X-319279Y-66521D01*
X-319223Y-66382D01*
X-319195Y-66299D01*
Y-66271D01*
X-319084Y-66049D01*
X-318973Y-65827D01*
X-318835Y-65633D01*
X-318724Y-65438D01*
X-318585Y-65299D01*
X-318474Y-65188D01*
X-318418Y-65133D01*
X-318390Y-65105D01*
X-318252Y-64994D01*
X-318113Y-64855D01*
X-317696Y-64550D01*
X-317252Y-64217D01*
X-316752Y-63856D01*
X-316308Y-63550D01*
X-316086Y-63411D01*
X-315919Y-63300D01*
X-315781Y-63189D01*
X-315670Y-63106D01*
X-315586Y-63078D01*
X-315559Y-63051D01*
X-311394Y-60274D01*
Y-68992D01*
D02*
G37*
G36*
X-324637Y-61191D02*
X-324359Y-61218D01*
X-324109Y-61302D01*
X-323887Y-61357D01*
X-323721Y-61440D01*
X-323610Y-61524D01*
X-323526Y-61551D01*
X-323499Y-61579D01*
X-323304Y-61746D01*
X-323138Y-61912D01*
X-322888Y-62273D01*
X-322805Y-62412D01*
X-322749Y-62551D01*
X-322693Y-62634D01*
Y-62662D01*
X-322666Y-62801D01*
X-322610Y-63023D01*
X-322583Y-63245D01*
X-322555Y-63495D01*
X-322527Y-64078D01*
X-322499Y-64661D01*
X-322471Y-65216D01*
Y-68992D01*
X-327358D01*
Y-64550D01*
X-327330Y-64300D01*
Y-63689D01*
X-327302Y-63439D01*
Y-63273D01*
X-327274Y-63189D01*
Y-63162D01*
X-327191Y-62828D01*
X-327080Y-62523D01*
X-326969Y-62273D01*
X-326830Y-62079D01*
X-326691Y-61912D01*
X-326608Y-61774D01*
X-326525Y-61718D01*
X-326497Y-61690D01*
X-326275Y-61524D01*
X-325997Y-61385D01*
X-325747Y-61302D01*
X-325498Y-61218D01*
X-325275Y-61191D01*
X-325109Y-61163D01*
X-324998D01*
X-324942D01*
X-324637Y-61191D01*
D02*
G37*
G36*
X-321694Y-84844D02*
X-318446D01*
Y-80402D01*
X-315975D01*
X-315725Y-80735D01*
X-315503Y-81096D01*
X-315309Y-81457D01*
X-315142Y-81790D01*
X-315003Y-82068D01*
X-314892Y-82317D01*
X-314837Y-82456D01*
X-314809Y-82484D01*
Y-82512D01*
X-314643Y-82956D01*
X-314531Y-83400D01*
X-314448Y-83817D01*
X-314393Y-84178D01*
X-314365Y-84511D01*
X-314337Y-84733D01*
Y-84955D01*
X-314365Y-85399D01*
X-314420Y-85843D01*
X-314504Y-86232D01*
X-314615Y-86621D01*
X-314892Y-87315D01*
X-315031Y-87592D01*
X-315198Y-87870D01*
X-315364Y-88120D01*
X-315503Y-88342D01*
X-315670Y-88509D01*
X-315781Y-88675D01*
X-315892Y-88786D01*
X-315975Y-88869D01*
X-316031Y-88925D01*
X-316058Y-88953D01*
X-316392Y-89203D01*
X-316780Y-89452D01*
X-317169Y-89647D01*
X-317585Y-89813D01*
X-318446Y-90091D01*
X-319279Y-90258D01*
X-319667Y-90313D01*
X-320056Y-90369D01*
X-320362Y-90396D01*
X-320667Y-90424D01*
X-320889Y-90452D01*
X-321083D01*
X-321194D01*
X-321222D01*
X-321805Y-90424D01*
X-322333Y-90396D01*
X-322860Y-90313D01*
X-323332Y-90230D01*
X-323749Y-90119D01*
X-324137Y-89980D01*
X-324498Y-89841D01*
X-324831Y-89702D01*
X-325109Y-89591D01*
X-325359Y-89452D01*
X-325553Y-89314D01*
X-325720Y-89203D01*
X-325858Y-89119D01*
X-325942Y-89036D01*
X-325997Y-89008D01*
X-326025Y-88981D01*
X-326303Y-88675D01*
X-326580Y-88370D01*
X-326775Y-88037D01*
X-326969Y-87703D01*
X-327136Y-87370D01*
X-327274Y-87037D01*
X-327469Y-86399D01*
X-327524Y-86093D01*
X-327580Y-85816D01*
X-327607Y-85566D01*
X-327635Y-85344D01*
X-327663Y-85177D01*
Y-84927D01*
X-327635Y-84316D01*
X-327524Y-83789D01*
X-327413Y-83317D01*
X-327247Y-82900D01*
X-327108Y-82595D01*
X-326969Y-82345D01*
X-326858Y-82206D01*
X-326830Y-82151D01*
X-326497Y-81762D01*
X-326136Y-81429D01*
X-325775Y-81152D01*
X-325414Y-80957D01*
X-325081Y-80791D01*
X-324831Y-80680D01*
X-324665Y-80624D01*
X-324637Y-80596D01*
X-324609D01*
X-325331Y-76737D01*
X-325803Y-76848D01*
X-326275Y-77015D01*
X-326691Y-77182D01*
X-327080Y-77404D01*
X-327469Y-77598D01*
X-327802Y-77820D01*
X-328107Y-78042D01*
X-328385Y-78264D01*
X-328635Y-78486D01*
X-328857Y-78681D01*
X-329051Y-78847D01*
X-329190Y-79014D01*
X-329301Y-79153D01*
X-329412Y-79264D01*
X-329440Y-79319D01*
X-329468Y-79347D01*
X-329745Y-79736D01*
X-329967Y-80152D01*
X-330162Y-80596D01*
X-330328Y-81068D01*
X-330606Y-81984D01*
X-330772Y-82873D01*
X-330856Y-83289D01*
X-330883Y-83678D01*
X-330911Y-84039D01*
X-330939Y-84344D01*
X-330967Y-84594D01*
Y-76487D01*
X-321694D01*
Y-84844D01*
D02*
G37*
G36*
X-317474Y-150224D02*
X-330606Y-153666D01*
Y-146809D01*
X-317474Y-150224D01*
D02*
G37*
D28*
X-245000Y448000D02*
D03*
Y492000D02*
D03*
X-115000D02*
D03*
X-180000D02*
D03*
X-320000D02*
D03*
X-180000Y448000D02*
D03*
X-115000D02*
D03*
X-320000D02*
D03*
D29*
X-230500Y410000D02*
D03*
X-245500D02*
D03*
X-305500D02*
D03*
X-99500D02*
D03*
X-164500D02*
D03*
X-320500D02*
D03*
X-179500D02*
D03*
X-114500D02*
D03*
D30*
X5000Y-77000D02*
D03*
X-35000D02*
D03*
X-10000D02*
D03*
X30000D02*
D03*
X40000D02*
D03*
X45000D02*
D03*
X-60000Y77000D02*
D03*
X-15000Y-77000D02*
D03*
X35000D02*
D03*
X-55000Y77000D02*
D03*
X-60000Y-77000D02*
D03*
X-55000D02*
D03*
X-50000D02*
D03*
X-45000D02*
D03*
X-40000D02*
D03*
X-30000D02*
D03*
X-25000D02*
D03*
X-20000D02*
D03*
X-5000D02*
D03*
X0D02*
D03*
X10000D02*
D03*
X15000D02*
D03*
X20000D02*
D03*
X25000D02*
D03*
X50000D02*
D03*
X55000D02*
D03*
X60000D02*
D03*
Y77000D02*
D03*
X55000D02*
D03*
X50000D02*
D03*
X45000D02*
D03*
X40000D02*
D03*
X35000D02*
D03*
X30000D02*
D03*
X25000D02*
D03*
X20000D02*
D03*
X15000D02*
D03*
X10000D02*
D03*
X5000D02*
D03*
X0D02*
D03*
X-5000D02*
D03*
X-10000D02*
D03*
X-15000D02*
D03*
X-20000D02*
D03*
X-25000D02*
D03*
X-30000D02*
D03*
X-35000D02*
D03*
X-40000D02*
D03*
X-45000D02*
D03*
X-50000D02*
D03*
D31*
X272430Y303530D02*
D03*
Y290830D02*
D03*
X155000Y282000D02*
D03*
Y268000D02*
D03*
X122000Y-61000D02*
D03*
X122540Y79660D02*
D03*
X258430Y303530D02*
D03*
Y290830D02*
D03*
X141000Y282000D02*
D03*
Y268000D02*
D03*
X136540Y62610D02*
D03*
X136000Y-61000D02*
D03*
X136540Y79660D02*
D03*
X122540Y62610D02*
D03*
D32*
X66000Y297000D02*
D03*
X79000D02*
D03*
X-45720Y-123810D02*
D03*
X-31750D02*
D03*
X60370D02*
D03*
X74340D02*
D03*
X-77470Y122540D02*
D03*
X-77000Y-124000D02*
D03*
X311150Y439816D02*
D03*
X298450D02*
D03*
X27940Y358510D02*
D03*
X66000Y283000D02*
D03*
X79000D02*
D03*
X-45720Y-137810D02*
D03*
X-31750D02*
D03*
X60370D02*
D03*
X74340D02*
D03*
X-59690Y136540D02*
D03*
X-77470D02*
D03*
X-77000Y-138000D02*
D03*
X247650Y438770D02*
D03*
Y452770D02*
D03*
X298450Y425816D02*
D03*
X311150D02*
D03*
X272112Y474116D02*
D03*
Y488116D02*
D03*
X27940Y372510D02*
D03*
X-59690Y122540D02*
D03*
D33*
X273050Y330680D02*
D03*
Y390680D02*
D03*
D34*
X258142Y473616D02*
D03*
X-16000Y286500D02*
D03*
Y248500D02*
D03*
X339710Y420490D02*
D03*
X300052Y488616D02*
D03*
X258142D02*
D03*
X286082Y488616D02*
D03*
Y473616D02*
D03*
X300052Y473616D02*
D03*
X-16000Y271500D02*
D03*
Y233500D02*
D03*
X381000Y420490D02*
D03*
Y435490D02*
D03*
X339710D02*
D03*
D35*
X77000Y-50000D02*
D03*
Y60000D02*
D03*
X-77000Y-60000D02*
D03*
X77000Y-55000D02*
D03*
X-77000D02*
D03*
X77000Y-60000D02*
D03*
Y-45000D02*
D03*
Y-40000D02*
D03*
Y-35000D02*
D03*
Y-30000D02*
D03*
Y-25000D02*
D03*
Y-20000D02*
D03*
Y-15000D02*
D03*
Y-10000D02*
D03*
Y-5000D02*
D03*
Y0D02*
D03*
Y5000D02*
D03*
Y10000D02*
D03*
Y15000D02*
D03*
Y20000D02*
D03*
Y25000D02*
D03*
Y30000D02*
D03*
Y35000D02*
D03*
Y40000D02*
D03*
Y45000D02*
D03*
Y50000D02*
D03*
Y55000D02*
D03*
X-77000Y60000D02*
D03*
Y55000D02*
D03*
Y50000D02*
D03*
Y45000D02*
D03*
Y40000D02*
D03*
Y35000D02*
D03*
Y30000D02*
D03*
Y25000D02*
D03*
Y20000D02*
D03*
Y15000D02*
D03*
Y10000D02*
D03*
Y5000D02*
D03*
Y0D02*
D03*
Y-5000D02*
D03*
Y-10000D02*
D03*
Y-15000D02*
D03*
Y-20000D02*
D03*
Y-25000D02*
D03*
Y-30000D02*
D03*
Y-35000D02*
D03*
Y-40000D02*
D03*
Y-45000D02*
D03*
Y-50000D02*
D03*
D36*
X339710Y489330D02*
D03*
X381000D02*
D03*
Y473330D02*
D03*
X339710D02*
D03*
D37*
X263550Y425416D02*
D03*
Y452916D02*
D03*
X273050D02*
D03*
X282550D02*
D03*
Y425416D02*
D03*
X273050D02*
D03*
D38*
X0Y353760D02*
D03*
X-9500D02*
D03*
X9500D02*
D03*
Y381260D02*
D03*
X0D02*
D03*
X-9500D02*
D03*
D39*
X-3810Y-133350D02*
D03*
D40*
X125570Y373110D02*
D03*
Y333010D02*
D03*
X83660Y373110D02*
D03*
Y333010D02*
D03*
D41*
X6190Y-133350D02*
D03*
X-13810D02*
D03*
D42*
X274600Y-225000D02*
D03*
Y-199600D02*
D03*
X249200Y-225000D02*
D03*
Y-199600D02*
D03*
X223800Y-225000D02*
D03*
Y-199600D02*
D03*
X198400Y-225000D02*
D03*
Y-199600D02*
D03*
X173000Y-225000D02*
D03*
Y-199600D02*
D03*
X147600Y-225000D02*
D03*
Y-199600D02*
D03*
X122200Y-225000D02*
D03*
Y-199600D02*
D03*
X96800Y-225000D02*
D03*
Y-199600D02*
D03*
X71400Y-225000D02*
D03*
Y-199600D02*
D03*
X46000Y-225000D02*
D03*
Y-199600D02*
D03*
X20600Y-225000D02*
D03*
Y-199600D02*
D03*
X-4800Y-225000D02*
D03*
Y-199600D02*
D03*
X-30200Y-225000D02*
D03*
Y-199600D02*
D03*
X-55600Y-225000D02*
D03*
Y-199600D02*
D03*
X-81000Y-225000D02*
D03*
Y-199600D02*
D03*
X-131800Y-225000D02*
D03*
X-106400D02*
D03*
Y-199600D02*
D03*
X-182600Y-225000D02*
D03*
X-157200D02*
D03*
X-131800Y-199600D02*
D03*
X-182600D02*
D03*
X-208000D02*
D03*
X-157200D02*
D03*
X155400Y189200D02*
D03*
Y240000D02*
D03*
Y214600D02*
D03*
Y163800D02*
D03*
X130000Y189200D02*
D03*
Y214600D02*
D03*
Y163800D02*
D03*
X36000Y297200D02*
D03*
X-224200Y146000D02*
D03*
X10600Y221000D02*
D03*
X159600Y-39000D02*
D03*
X38000Y128000D02*
D03*
X-174600Y-35000D02*
D03*
X-188000Y44000D02*
D03*
X-238800D02*
D03*
X-213400D02*
D03*
X-320000Y127200D02*
D03*
Y152600D02*
D03*
Y178000D02*
D03*
Y203400D02*
D03*
Y228800D02*
D03*
Y279600D02*
D03*
Y254200D02*
D03*
X240000Y-112800D02*
D03*
Y-87400D02*
D03*
Y-62000D02*
D03*
Y-36600D02*
D03*
Y-11200D02*
D03*
Y39600D02*
D03*
Y14200D02*
D03*
X-173400Y146000D02*
D03*
X-198800D02*
D03*
X10600Y271800D02*
D03*
Y246400D02*
D03*
Y297200D02*
D03*
X36000Y271800D02*
D03*
Y246400D02*
D03*
D43*
X-208000Y-225000D02*
D03*
X-148000Y146000D02*
D03*
X185000Y-39000D02*
D03*
X63400Y128000D02*
D03*
X-200000Y-35000D02*
D03*
X-264200Y44000D02*
D03*
D44*
X-320000Y365000D02*
D03*
X380000Y-221000D02*
D03*
X-320000D02*
D03*
X380000Y365000D02*
D03*
D45*
X130000Y240000D02*
D03*
X-320000Y305000D02*
D03*
X240000Y65000D02*
D03*
X36000Y221000D02*
D03*
D46*
X180000Y410000D02*
D03*
Y470000D02*
D03*
D47*
X133000Y437000D02*
D03*
D48*
X-51700Y475100D02*
D03*
X76700D02*
D03*
D49*
X25000Y428000D02*
D03*
X0Y448000D02*
D03*
X25000D02*
D03*
D50*
X0Y428000D02*
D03*
M02*
